# xmcd CD database file
#
# Track frame offsets:
#	150
#	20562
#	36389
#	65064
#	84808
#	105535
#	132690
#	150671
#	172152
#	197655
#	218642
#	243397
#	271055
#	291235
#	326127
#
# Disc length: 4552 seconds
#
# Revision: 1
# Processed by: cddbd v1.5.2PL0 Copyright (c) Steve Scherf et al.
# Submitted via: CDex 1.51
#
DISCID=df11c60f
DTITLE=Various Artist - The Cafe Sessions
DYEAR=2011
DGENRE=Jazz
TTITLE0=Submotion Orchestra - Sunshine
TTITLE1=Scarlette Fever - You Don't Know My Name
TTITLE2=D'Note ft Beth Hirsch - Everybody Loves The Sunshine
TTITLE3=Cass Fox - Touch Me
TTITLE4=Roebeck - 1000 Miles
TTITLE5=Honey Ryder ft Fat Buddha - Choices
TTITLE6=River Gode - Acacia House
TTITLE7=Nitin Sawhney - Sunset
TTITLE8=Morcheeba - The Sea
TTITLE9=James Bright ft Rachel Lloyd
TTITLE10=Dusted ft Dido - Time Takes Time
TTITLE11=Bliss - Calling
TTITLE12=Gotan Project - Epoca
TTITLE13=Max Sedgley - Life's A Beach
TTITLE14=Dario G - Voices
EXTD=YEAR: 2011
EXTT0=
EXTT1=
EXTT2=
EXTT3=
EXTT4=
EXTT5=
EXTT6=
EXTT7=
EXTT8=
EXTT9=
EXTT10=
EXTT11=
EXTT12=
EXTT13=
EXTT14=
PLAYORDER=
